# xmcd CD database file
#
# Track frame offsets:
#	150
#	17858
#	37537
#	55182
#
# Disc length: 995 seconds
#
# Revision: 1
# Processed by: cddbd v1.5.1PL0 Copyright (c) Steve Scherf et al.
# Submitted via: CDex 1.51
#
DISCID=2303e104
DTITLE=双恋 All Twins - FU・WA・RI 告白！
DYEAR=2004
DGENRE=Game
TTITLE0=FU・WA・RI 告白！
TTITLE1=わいわいLove balloon
TTITLE2=FU・WA・RI 告白！ (Off Vocal)
TTITLE3=わいわいLove balloon (Off Vocal)
EXTD=YEAR: 2004
EXTT0=
EXTT1=
EXTT2=
EXTT3=
PLAYORDER=
